<svg data-v-fde0c5aa="" xmlns="http://www.w3.org/2000/svg" viewBox="0 0 300 300" class="iconLeftSlogan"><!----><defs data-v-fde0c5aa=""><!----></defs><rect data-v-fde0c5aa="" fill="transparent" x="0" y="0" width="300px" height="300px" class="logo-background-square"></rect><defs data-v-fde0c5aa=""><!----></defs><g data-v-fde0c5aa="" id="7251a90e-3483-47f9-8315-fcc15cc610d6" fill="#000000" transform="matrix(1.609352215640802,0,0,1.609352215640802,145.49458884035334,131.84058399043752)"><path d="M3.74 2.34L7.80 2.34L8.08 0.88L2.16 0.88L0.29 10.50L2.16 10.50L2.94 6.47L6.86 6.45L7.14 4.98L3.23 4.98ZM14.25 4.47L14.56 2.87C14.41 2.86 14.08 2.86 14.07 2.86C13.03 2.86 12.17 3.56 11.70 4.49C11.80 3.96 11.91 3.28 11.96 3.00L10.21 3.00C10.16 3.40 10.08 3.95 9.95 4.59L8.79 10.50L10.61 10.50L11.33 6.85C11.62 5.28 12.39 4.42 13.61 4.42C13.93 4.42 14.07 4.44 14.25 4.47ZM17.65 10.64C19.50 10.64 20.38 9.93 21 8.71L19.42 8.20C19.15 8.88 18.65 9.39 17.82 9.39C16.90 9.39 16.32 8.65 16.48 7.29L16.49 7.14L21.49 7.14C21.59 6.66 21.66 6.08 21.66 5.66C21.66 3.98 20.71 2.86 18.62 2.86C16.11 2.86 14.88 4.41 14.63 6.78C14.38 9.09 15.18 10.64 17.65 10.64ZM18.58 4.00C19.24 4.00 20.01 4.33 19.98 5.53C19.98 5.63 19.98 5.77 19.96 5.91L16.65 5.91C16.93 4.45 17.72 4.00 18.58 4.00ZM28.41 8.79C28.66 7.18 27.65 6.71 26.10 6.03C24.86 5.50 24.81 5.03 24.86 4.70C24.93 4.30 25.31 4.07 25.86 4.07C26.39 4.07 27.06 4.23 27.24 4.98L28.80 4.69C28.55 3.57 27.48 2.86 25.87 2.86C24.21 2.86 23.31 3.67 23.18 4.66C23.04 5.74 23.46 6.64 25.13 7.36C26.29 7.87 26.75 8.09 26.71 8.64C26.67 9.16 26.32 9.45 25.41 9.45C24.33 9.45 23.97 8.85 23.81 8.27L22.16 8.57C22.33 9.65 23.17 10.64 25.40 10.64C27.03 10.64 28.21 10.02 28.41 8.79ZM32.80 2.94L33.47-0.50L31.61-0.50L29.53 10.50L31.36 10.50L32.07 6.75C32.37 5.17 33.24 4.23 34.30 4.23C35.69 4.23 35.45 5.29 35.24 6.27L34.40 10.50L36.22 10.50L37.10 5.98C37.45 4.19 37.16 2.86 35.10 2.86C33.88 2.86 33.01 3.47 32.52 4.34ZM45.78 7.63C45.78 5.66 44.27 5.15 42.92 4.76C41.76 4.42 40.98 4.19 40.98 3.35C40.98 2.59 41.57 2.09 42.80 2.09C43.86 2.09 44.48 2.59 44.69 3.42L46.37 2.98C46.10 1.64 45.04 0.74 42.90 0.74C40.91 0.74 39.27 1.62 39.27 3.42C39.27 5.18 40.53 5.75 42.10 6.22C43.47 6.62 44.07 6.89 44.07 7.77C44.07 8.85 43.16 9.23 41.80 9.23C40.52 9.23 39.93 8.72 39.75 7.73L38.07 8.05C38.32 9.74 39.41 10.64 41.69 10.64C44.45 10.64 45.78 9.53 45.78 7.63ZM47.91 4.19L48.86 4.19L47.95 8.79C47.78 9.59 47.96 10.64 49.27 10.64C49.87 10.64 50.34 10.61 50.78 10.60L51.04 9.27L50.20 9.27C49.76 9.27 49.63 9.04 49.73 8.58L50.64 4.19L52.07 4.19L52.35 3.00L50.89 3.00L51.38 0.64L49.69 0.64L49.15 3.00L48.17 3.00ZM59.70 9.37L59.04 9.37C58.74 9.37 58.55 9.25 58.63 8.86L59.28 5.66C59.57 4.27 59.12 2.86 56.69 2.86C54.87 2.86 53.87 3.70 53.55 4.83L55.20 5.12C55.43 4.27 56.11 4.12 56.55 4.12C57.39 4.12 57.78 4.65 57.64 5.38L57.48 6.12L56.27 6.12C54.52 6.15 52.84 6.48 52.50 8.09C52.22 9.41 52.92 10.64 54.61 10.64C55.66 10.64 56.46 10.22 56.92 9.45C56.85 10.08 57.23 10.64 58.31 10.64C58.87 10.64 59.15 10.61 59.46 10.58ZM55.29 9.39C54.47 9.39 54.08 8.85 54.22 8.11C54.39 7.24 55.23 7.13 56.28 7.11L57.29 7.11L57.22 7.50C57.01 8.54 56.31 9.39 55.29 9.39ZM66.11 4.47L66.42 2.87C66.26 2.86 65.94 2.86 65.93 2.86C64.89 2.86 64.02 3.56 63.56 4.49C63.66 3.96 63.77 3.28 63.81 3.00L62.06 3.00C62.02 3.40 61.94 3.95 61.81 4.59L60.65 10.50L62.47 10.50L63.18 6.85C63.48 5.28 64.25 4.42 65.46 4.42C65.79 4.42 65.93 4.44 66.11 4.47ZM66.71 4.19L67.66 4.19L66.75 8.79C66.58 9.59 66.77 10.64 68.07 10.64C68.67 10.64 69.15 10.61 69.58 10.60L69.85 9.27L69.01 9.27C68.56 9.27 68.43 9.04 68.53 8.58L69.44 4.19L70.87 4.19L71.15 3.00L69.69 3.00L70.18 0.64L68.49 0.64L67.96 3.00L66.98 3.00Z"></path></g><defs data-v-fde0c5aa=""><linearGradient data-v-fde0c5aa="" gradientTransform="rotate(25)" id="fdccb450-d209-48ae-89e8-6d03b02bdbf6" x1="0%" y1="0%" x2="100%" y2="0%"><stop data-v-fde0c5aa="" offset="0%" stop-color="#8E36DE" stop-opacity="1"></stop><stop data-v-fde0c5aa="" offset="100%" stop-color="#F7CFF5" stop-opacity="1"></stop></linearGradient></defs><g data-v-fde0c5aa="" id="d9a10c73-461b-4955-91b5-737907e11901" stroke="none" fill="url(#fdccb450-d209-48ae-89e8-6d03b02bdbf6)" transform="matrix(0.9296037192434946,0,0,0.9296037192434946,39.74157016870993,130.9443078809725)"><path d="M45.295 1.626a.954.954 0 0 0-.953-.953h-4.11a.954.954 0 0 0-.954.953v1.147l6.017 4.683v-5.83zM61.346 1.626a.953.953 0 0 0-.953-.953h-4.11a.954.954 0 0 0-.953.953v5.831l6.017-4.683V1.626z"></path><path d="M99.326 38.598h-3.478V26.439h3.297c.311 0 .408-.419.128-.556l-8.371-5.109a5.506 5.506 0 0 0-2.412-.556h-2.1v-1.511h4.815a.496.496 0 0 0 .282-.903l-.877-.604L68.873.365a2.301 2.301 0 0 0-2.612 0l-15.982 12.36L34.296.365a2.303 2.303 0 0 0-2.613 0L9.946 17.2l-.877.605a.495.495 0 0 0 .281.903h4.816v1.511h-2.1c-.835 0-1.661.19-2.412.556l-8.372 5.109c-.28.136-.183.556.128.556h3.297v12.159H1.23a.952.952 0 0 0-.952.952v.535c0 .526.433.953.953.953h98.194c.442 0 .854-.427.854-.953v-.536a.953.953 0 0 0-.953-.952zM68.834 14.06l5.573-4.409a.49.49 0 0 1 .669 0l5.572 4.409a.18.18 0 0 1-.123.312h-1.397l-4.387-3.301-4.387 3.301h-1.397a.18.18 0 0 1-.123-.312zm8.613 3.239h-1.933a.457.457 0 0 1-.456-.458v-1.339c0-.253.204-.458.456-.458h1.933c.253 0 .457.205.457.458v1.339a.456.456 0 0 1-.457.458zm.457 1.181v1.339a.457.457 0 0 1-.457.457h-1.933a.457.457 0 0 1-.456-.457V18.48c0-.252.204-.457.456-.457h1.933c.253 0 .457.205.457.457zm-3.967-1.181h-1.933a.459.459 0 0 1-.458-.458v-1.339c0-.253.206-.458.458-.458h1.933c.253 0 .457.205.457.458v1.339a.457.457 0 0 1-.457.458zm.457 1.181v1.339a.457.457 0 0 1-.457.457h-1.933a.458.458 0 0 1-.458-.457V18.48c0-.252.206-.457.458-.457h1.933c.252 0 .457.205.457.457zm-54.486-4.42l5.573-4.409a.489.489 0 0 1 .668 0l5.573 4.409a.18.18 0 0 1-.123.312h-1.397l-4.387-3.301-4.387 3.301h-1.397a.18.18 0 0 1-.123-.312zm8.645 3.239H26.62a.458.458 0 0 1-.457-.458v-1.339c0-.253.204-.458.457-.458h1.933c.252 0 .458.205.458.458v1.339a.459.459 0 0 1-.458.458zm.457 1.181v1.339a.458.458 0 0 1-.458.457H26.62a.458.458 0 0 1-.457-.457V18.48c0-.252.204-.457.457-.457h1.933c.252 0 .457.205.457.457zm-3.968-1.181H23.11a.458.458 0 0 1-.458-.458v-1.339c0-.253.205-.458.458-.458h1.932c.252 0 .458.205.458.458v1.339a.459.459 0 0 1-.458.458zm.457 1.181v1.339a.458.458 0 0 1-.458.457h-1.932a.458.458 0 0 1-.458-.457V18.48c0-.252.205-.457.458-.457h1.932c.253 0 .458.205.458.457zm-2.231 20.118H9.028v-9.614a9.782 9.782 0 0 1 7.576-3.059 9.746 9.746 0 0 1 2.711.514 9.695 9.695 0 0 1 3.953 2.545v9.614zm15.701 0H24.946v-9.614a9.678 9.678 0 0 1 3.953-2.545 9.775 9.775 0 0 1 2.712-.514h-.265a16.47 16.47 0 0 1 1.176 0 9.739 9.739 0 0 1 6.447 2.842v9.831zm.856-18.779a.458.458 0 0 1-.458.457h-1.932a.458.458 0 0 1-.458-.457V18.48c0-.252.205-.457.458-.457h1.932c.252 0 .458.205.458.457v1.339zm0-2.977a.458.458 0 0 1-.458.458h-1.932a.458.458 0 0 1-.458-.458v-1.339c0-.253.205-.458.458-.458h1.932c.252 0 .458.205.458.458v1.339zm.664 2.977V18.48c0-.252.205-.457.457-.457h1.933c.253 0 .458.205.458.457v1.339a.458.458 0 0 1-.458.457h-1.933a.457.457 0 0 1-.457-.457zm0-2.977v-1.339c0-.253.205-.458.457-.458h1.933c.253 0 .458.205.458.458v1.339a.458.458 0 0 1-.458.458h-1.933a.458.458 0 0 1-.457-.458zm5.576 21.756h-5.324v-9.924c.665-.378 1.603-.624 2.662-.632 1.06.008 1.998.253 2.662.632v9.924zm-.139-24.226h-1.397l-4.387-3.301-4.387 3.301h-1.397a.18.18 0 0 1-.123-.312l5.573-4.409a.489.489 0 0 1 .668 0l5.573 4.409a.18.18 0 0 1-.123.312zm6.991 24.226h-5.278v-9.924c.659-.375 1.589-.62 2.639-.631 1.05.011 1.979.255 2.639.631v9.924zm6.898 0h-5.324v-9.924c.664-.378 1.603-.624 2.662-.632 1.06.008 1.998.253 2.662.632v9.924zm.252-18.779a.457.457 0 0 1-.457.457h-1.933a.458.458 0 0 1-.458-.457V18.48c0-.252.206-.457.458-.457h1.933c.253 0 .457.205.457.457v1.339zm0-2.977a.457.457 0 0 1-.457.458h-1.933a.459.459 0 0 1-.458-.458v-1.339c0-.253.206-.458.458-.458h1.933c.253 0 .457.205.457.458v1.339zm-4.039-2.47h-1.397a.18.18 0 0 1-.123-.312l5.573-4.409a.489.489 0 0 1 .668 0l5.573 4.409a.18.18 0 0 1-.124.312h-1.396l-4.387-3.301-4.387 3.301zm7.55 1.131v1.339a.457.457 0 0 1-.457.458h-1.933a.458.458 0 0 1-.457-.458v-1.339c0-.253.205-.458.457-.458h1.933c.253 0 .457.205.457.458zm-2.847 4.316V18.48c0-.252.205-.457.457-.457h1.933c.253 0 .457.205.457.457v1.339a.457.457 0 0 1-.457.457h-1.933a.458.458 0 0 1-.457-.457zm14.88 18.779H61.588v-9.831a9.699 9.699 0 0 1 3.736-2.328 9.768 9.768 0 0 1 2.71-.514c.305-.014.873-.014 1.178 0h-.266c.92.043 1.832.212 2.712.514a9.702 9.702 0 0 1 3.953 2.545v9.614zm15.918 0h-14.24v-9.614a9.682 9.682 0 0 1 3.952-2.545 9.782 9.782 0 0 1 3.623-.514c.92.043 1.832.212 2.712.514a9.702 9.702 0 0 1 3.953 2.545v9.614z"></path><path d="M28.092 29.003h-1.49a.353.353 0 0 0-.353.353v1.032c0 .195.159.353.353.353h1.49a.353.353 0 0 0 .353-.353v-1.032a.353.353 0 0 0-.353-.353zM31.22 29.003h-1.49a.352.352 0 0 0-.353.353v1.032c0 .195.158.353.353.353h1.49a.353.353 0 0 0 .353-.353v-1.032a.352.352 0 0 0-.353-.353zM34.349 29.003h-1.491a.352.352 0 0 0-.353.353v1.032c0 .195.158.353.353.353h1.491a.353.353 0 0 0 .352-.353v-1.032a.353.353 0 0 0-.352-.353zM35.986 30.741h1.49a.352.352 0 0 0 .352-.353v-1.032a.351.351 0 0 0-.352-.353h-1.49a.352.352 0 0 0-.353.353v1.032c0 .195.159.353.353.353zM12.208 29.003h-1.49a.352.352 0 0 0-.353.353v1.032c0 .195.158.353.353.353h1.49a.353.353 0 0 0 .352-.353v-1.032a.353.353 0 0 0-.352-.353zM15.335 29.003h-1.49a.353.353 0 0 0-.353.353v1.032c0 .195.158.353.353.353h1.49a.353.353 0 0 0 .353-.353v-1.032a.352.352 0 0 0-.353-.353zM18.463 29.003h-1.49a.352.352 0 0 0-.353.353v1.032c0 .195.158.353.353.353h1.49a.354.354 0 0 0 .353-.353v-1.032a.352.352 0 0 0-.353-.353zM20.102 30.741h1.49a.353.353 0 0 0 .353-.353v-1.032a.352.352 0 0 0-.353-.353h-1.49a.352.352 0 0 0-.353.353v1.032c0 .195.157.353.353.353zM64.537 29.003h-1.489a.354.354 0 0 0-.354.353v1.032c0 .195.159.353.354.353h1.489a.354.354 0 0 0 .354-.353v-1.032a.354.354 0 0 0-.354-.353zM67.665 29.003h-1.49a.353.353 0 0 0-.352.353v1.032c0 .195.158.353.352.353h1.49a.353.353 0 0 0 .353-.353v-1.032a.352.352 0 0 0-.353-.353zM70.794 29.003h-1.49a.352.352 0 0 0-.353.353v1.032c0 .195.157.353.353.353h1.49a.354.354 0 0 0 .353-.353v-1.032a.354.354 0 0 0-.353-.353zM72.432 30.741h1.49a.353.353 0 0 0 .353-.353v-1.032a.352.352 0 0 0-.353-.353h-1.49a.354.354 0 0 0-.354.353v1.032c0 .195.159.353.354.353zM80.456 29.003h-1.49a.353.353 0 0 0-.354.353v1.032c0 .195.158.353.354.353h1.49a.353.353 0 0 0 .352-.353v-1.032a.352.352 0 0 0-.352-.353zM83.584 29.003h-1.49a.353.353 0 0 0-.353.353v1.032c0 .195.158.353.353.353h1.49a.354.354 0 0 0 .353-.353v-1.032a.353.353 0 0 0-.353-.353zM86.712 29.003h-1.49a.353.353 0 0 0-.353.353v1.032c0 .195.158.353.353.353h1.49a.354.354 0 0 0 .353-.353v-1.032a.354.354 0 0 0-.353-.353zM88.351 30.741h1.489a.354.354 0 0 0 .353-.353v-1.032a.352.352 0 0 0-.353-.353h-1.489a.353.353 0 0 0-.354.353v1.032c0 .195.157.353.354.353z"></path></g><defs data-v-fde0c5aa=""><!----></defs><g data-v-fde0c5aa="" id="ac4ffcbe-4fc1-4034-9f78-91008e94d99c" fill="#000000" transform="matrix(0.4377012943979984,0,0,0.4377012943979984,145.32225711090408,157.37085935985746)"><path d="M10.05 3.78L10.05 13.02L9.38 13.02L9.38 6.13L9.46 4.45L9.45 4.45L6.08 13.02L5.43 13.02L2.06 4.45L2.04 4.45L2.13 6.13L2.13 13.02L1.46 13.02L1.46 3.78L2.51 3.78L5.29 10.78L5.75 12.19L5.77 12.19L6.22 10.79L9.00 3.78L10.05 3.78ZM20.66 3.78L20.66 13.02L19.96 13.02L19.96 3.78L20.66 3.78ZM34.13 8.50L37.93 8.50L37.93 13.02L37.37 13.02L37.34 11.41L37.34 11.41Q36.96 12.25 36.16 12.71L36.16 12.71L36.16 12.71Q35.35 13.16 34.16 13.16L34.16 13.16L34.16 13.16Q32.90 13.16 31.96 12.58L31.96 12.58L31.96 12.58Q31.01 12.00 30.50 10.92L30.50 10.92L30.50 10.92Q29.99 9.84 29.99 8.40L29.99 8.40L29.99 8.40Q29.99 6.96 30.51 5.88L30.51 5.88L30.51 5.88Q31.04 4.80 31.99 4.22L31.99 4.22L31.99 4.22Q32.94 3.64 34.20 3.64L34.20 3.64L34.20 3.64Q35.62 3.64 36.51 4.20L36.51 4.20L36.51 4.20Q37.41 4.76 37.86 5.91L37.86 5.91L37.21 6.24L37.21 6.24Q36.89 5.28 36.13 4.78L36.13 4.78L36.13 4.78Q35.36 4.28 34.20 4.28L34.20 4.28L34.20 4.28Q33.17 4.28 32.38 4.78L32.38 4.78L32.38 4.78Q31.60 5.28 31.16 6.21L31.16 6.21L31.16 6.21Q30.73 7.14 30.73 8.40L30.73 8.40L30.73 8.40Q30.73 10.32 31.65 11.42L31.65 11.42L31.65 11.42Q32.56 12.52 34.19 12.52L34.19 12.52L34.19 12.52Q35.20 12.52 35.90 12.12L35.90 12.12L35.90 12.12Q36.60 11.72 36.93 11.07L36.93 11.07L36.93 11.07Q37.27 10.42 37.27 9.67L37.27 9.67L37.27 9.16L34.13 9.16L34.13 8.50ZM54.35 13.02L53.52 13.02L50.88 9.02L50.83 9.02L48.10 9.02L48.10 13.02L47.40 13.02L47.40 3.78L50.83 3.78L50.83 3.78Q52.22 3.78 53.04 4.48L53.04 4.48L53.04 4.48Q53.86 5.18 53.86 6.40L53.86 6.40L53.86 6.40Q53.86 7.41 53.27 8.07L53.27 8.07L53.27 8.07Q52.68 8.74 51.66 8.93L51.66 8.93L54.35 13.02ZM48.10 4.42L48.10 8.36L50.82 8.36L50.82 8.36Q51.94 8.36 52.54 7.85L52.54 7.85L52.54 7.85Q53.13 7.35 53.13 6.40L53.13 6.40L53.13 6.40Q53.13 5.45 52.54 4.93L52.54 4.93L52.54 4.93Q51.94 4.42 50.82 4.42L50.82 4.42L48.10 4.42ZM69.65 13.02L68.49 10.12L64.06 10.12L62.92 13.02L62.17 13.02L65.87 3.78L66.70 3.78L70.39 13.02L69.65 13.02ZM64.33 9.48L68.24 9.48L66.63 5.45L66.29 4.47L66.28 4.47L65.94 5.42L64.33 9.48ZM84.08 3.78L84.08 4.42L80.71 4.42L80.71 13.02L80.01 13.02L80.01 4.42L76.64 4.42L76.64 3.78L84.08 3.78ZM93.55 12.38L99.39 12.38L99.39 13.02L92.85 13.02L92.85 3.78L99.16 3.78L99.16 4.42L93.55 4.42L93.55 7.99L97.99 7.99L97.99 8.65L93.55 8.65L93.55 12.38ZM125.72 3.78L125.72 4.42L122.35 4.42L122.35 13.02L121.65 13.02L121.65 4.42L118.27 4.42L118.27 3.78L125.72 3.78ZM137.66 3.64L137.66 3.64Q138.96 3.64 139.92 4.22L139.92 4.22L139.92 4.22Q140.88 4.80 141.40 5.87L141.40 5.87L141.40 5.87Q141.92 6.94 141.92 8.40L141.92 8.40L141.92 8.40Q141.92 9.86 141.40 10.93L141.40 10.93L141.40 10.93Q140.88 12.00 139.92 12.58L139.92 12.58L139.92 12.58Q138.96 13.16 137.66 13.16L137.66 13.16L137.66 13.16Q136.36 13.16 135.40 12.58L135.40 12.58L135.40 12.58Q134.44 12.00 133.92 10.93L133.92 10.93L133.92 10.93Q133.41 9.86 133.41 8.40L133.41 8.40L133.41 8.40Q133.41 6.94 133.92 5.87L133.92 5.87L133.92 5.87Q134.44 4.80 135.40 4.22L135.40 4.22L135.40 4.22Q136.36 3.64 137.66 3.64L137.66 3.64ZM137.66 4.28L137.66 4.28Q136.58 4.28 135.79 4.78L135.79 4.78L135.79 4.78Q135.00 5.28 134.58 6.21L134.58 6.21L134.58 6.21Q134.15 7.14 134.15 8.40L134.15 8.40L134.15 8.40Q134.15 9.66 134.58 10.59L134.58 10.59L134.58 10.59Q135.00 11.52 135.79 12.02L135.79 12.02L135.79 12.02Q136.58 12.52 137.66 12.52L137.66 12.52L137.66 12.52Q138.74 12.52 139.54 12.02L139.54 12.02L139.54 12.02Q140.34 11.52 140.76 10.59L140.76 10.59L140.76 10.59Q141.19 9.66 141.19 8.40L141.19 8.40L141.19 8.40Q141.19 7.14 140.76 6.21L140.76 6.21L140.76 6.21Q140.34 5.28 139.54 4.78L139.54 4.78L139.54 4.78Q138.74 4.28 137.66 4.28L137.66 4.28ZM163.32 12.38L169.16 12.38L169.16 13.02L162.62 13.02L162.62 3.78L168.94 3.78L168.94 4.42L163.32 4.42L163.32 7.99L167.76 7.99L167.76 8.65L163.32 8.65L163.32 12.38ZM184.31 13.02L183.48 13.02L180.67 8.83L177.83 13.02L177.00 13.02L180.31 8.27L177.28 3.78L178.12 3.78L180.75 7.70L183.41 3.78L184.20 3.78L181.13 8.26L184.31 13.02ZM196.18 3.78L196.18 3.78Q197.62 3.78 198.47 4.50L198.47 4.50L198.47 4.50Q199.32 5.22 199.32 6.48L199.32 6.48L199.32 6.48Q199.32 7.74 198.47 8.47L198.47 8.47L198.47 8.47Q197.62 9.20 196.18 9.20L196.18 9.20L193.82 9.20L193.82 13.02L193.12 13.02L193.12 3.78L196.18 3.78ZM196.10 8.54L196.10 8.54Q197.30 8.54 197.94 8.01L197.94 8.01L197.94 8.01Q198.58 7.48 198.58 6.48L198.58 6.48L198.58 6.48Q198.58 5.50 197.94 4.96L197.94 4.96L197.94 4.96Q197.30 4.42 196.10 4.42L196.10 4.42L193.82 4.42L193.82 8.54L196.10 8.54ZM215.28 13.02L214.45 13.02L211.81 9.02L211.76 9.02L209.03 9.02L209.03 13.02L208.33 13.02L208.33 3.78L211.76 3.78L211.76 3.78Q213.15 3.78 213.97 4.48L213.97 4.48L213.97 4.48Q214.79 5.18 214.79 6.40L214.79 6.40L214.79 6.40Q214.79 7.41 214.20 8.07L214.20 8.07L214.20 8.07Q213.61 8.74 212.59 8.93L212.59 8.93L215.28 13.02ZM209.03 4.42L209.03 8.36L211.75 8.36L211.75 8.36Q212.87 8.36 213.47 7.85L213.47 7.85L213.47 7.85Q214.06 7.35 214.06 6.40L214.06 6.40L214.06 6.40Q214.06 5.45 213.47 4.93L213.47 4.93L213.47 4.93Q212.87 4.42 211.75 4.42L211.75 4.42L209.03 4.42ZM224.99 12.38L230.83 12.38L230.83 13.02L224.29 13.02L224.29 3.78L230.61 3.78L230.61 4.42L224.99 4.42L224.99 7.99L229.43 7.99L229.43 8.65L224.99 8.65L224.99 12.38ZM242.72 3.64L242.72 3.64Q245.32 3.64 246.20 5.68L246.20 5.68L245.60 6.17L245.60 6.17Q245.25 5.18 244.56 4.73L244.56 4.73L244.56 4.73Q243.87 4.28 242.73 4.28L242.73 4.28L242.73 4.28Q241.92 4.28 241.32 4.54L241.32 4.54L241.32 4.54Q240.72 4.79 240.40 5.22L240.40 5.22L240.40 5.22Q240.09 5.66 240.09 6.20L240.09 6.20L240.09 6.20Q240.09 6.73 240.35 7.08L240.35 7.08L240.35 7.08Q240.62 7.43 241.26 7.68L241.26 7.68L241.26 7.68Q241.89 7.92 243.01 8.12L243.01 8.12L243.01 8.12Q244.82 8.43 245.57 9.02L245.57 9.02L245.57 9.02Q246.33 9.60 246.33 10.64L246.33 10.64L246.33 10.64Q246.33 11.38 245.90 11.96L245.90 11.96L245.90 11.96Q245.46 12.53 244.67 12.84L244.67 12.84L244.67 12.84Q243.88 13.16 242.86 13.16L242.86 13.16L242.86 13.16Q241.40 13.16 240.40 12.58L240.40 12.58L240.40 12.58Q239.40 12.00 239.04 10.95L239.04 10.95L239.65 10.47L239.65 10.47Q239.93 11.47 240.78 11.99L240.78 11.99L240.78 11.99Q241.63 12.52 242.87 12.52L242.87 12.52L242.87 12.52Q244.08 12.52 244.84 12.03L244.84 12.03L244.84 12.03Q245.60 11.54 245.60 10.68L245.60 10.68L245.60 10.68Q245.60 9.94 244.98 9.51L244.98 9.51L244.98 9.51Q244.36 9.07 242.82 8.81L242.82 8.81L242.82 8.81Q241.51 8.58 240.76 8.26L240.76 8.26L240.76 8.26Q240.00 7.94 239.67 7.46L239.67 7.46L239.67 7.46Q239.34 6.99 239.34 6.27L239.34 6.27L239.34 6.27Q239.34 5.56 239.76 4.96L239.76 4.96L239.76 4.96Q240.17 4.35 240.93 4.00L240.93 4.00L240.93 4.00Q241.70 3.64 242.72 3.64L242.72 3.64ZM258.38 3.64L258.38 3.64Q260.99 3.64 261.87 5.68L261.87 5.68L261.27 6.17L261.27 6.17Q260.92 5.18 260.23 4.73L260.23 4.73L260.23 4.73Q259.53 4.28 258.40 4.28L258.40 4.28L258.40 4.28Q257.59 4.28 256.98 4.54L256.98 4.54L256.98 4.54Q256.38 4.79 256.07 5.22L256.07 5.22L256.07 5.22Q255.75 5.66 255.75 6.20L255.75 6.20L255.75 6.20Q255.75 6.73 256.02 7.08L256.02 7.08L256.02 7.08Q256.28 7.43 256.92 7.68L256.92 7.68L256.92 7.68Q257.56 7.92 258.68 8.12L258.68 8.12L258.68 8.12Q260.48 8.43 261.24 9.02L261.24 9.02L261.24 9.02Q262.00 9.60 262.00 10.64L262.00 10.64L262.00 10.64Q262.00 11.38 261.56 11.96L261.56 11.96L261.56 11.96Q261.13 12.53 260.34 12.84L260.34 12.84L260.34 12.84Q259.55 13.16 258.52 13.16L258.52 13.16L258.52 13.16Q257.07 13.16 256.07 12.58L256.07 12.58L256.07 12.58Q255.07 12.00 254.70 10.95L254.70 10.95L255.32 10.47L255.32 10.47Q255.60 11.47 256.45 11.99L256.45 11.99L256.45 11.99Q257.29 12.52 258.54 12.52L258.54 12.52L258.54 12.52Q259.74 12.52 260.51 12.03L260.51 12.03L260.51 12.03Q261.27 11.54 261.27 10.68L261.27 10.68L261.27 10.68Q261.27 9.94 260.65 9.51L260.65 9.51L260.65 9.51Q260.02 9.07 258.48 8.81L258.48 8.81L258.48 8.81Q257.18 8.58 256.42 8.26L256.42 8.26L256.42 8.26Q255.67 7.94 255.34 7.46L255.34 7.46L255.34 7.46Q255.01 6.99 255.01 6.27L255.01 6.27L255.01 6.27Q255.01 5.56 255.42 4.96L255.42 4.96L255.42 4.96Q255.84 4.35 256.60 4.00L256.60 4.00L256.60 4.00Q257.36 3.64 258.38 3.64L258.38 3.64Z"></path></g></svg>